<svg xmlns="http://www.w3.org/2000/svg" width="14" height="12.526" viewBox="0 0 14 12.526">
  <path id="Subtraction_1" data-name="Subtraction 1" d="M12.158,12.526H1.842A1.844,1.844,0,0,1,0,10.684V4.052A1.844,1.844,0,0,1,1.842,2.211h.931A1.1,1.1,0,0,0,3.762,1.6l.29-.581A1.832,1.832,0,0,1,5.7,0H8.3A1.831,1.831,0,0,1,9.947,1.018l.291.581a1.1,1.1,0,0,0,.989.611h.931A1.844,1.844,0,0,1,14,4.052v6.632A1.844,1.844,0,0,1,12.158,12.526ZM7,3.684A3.316,3.316,0,1,0,10.316,7,3.319,3.319,0,0,0,7,3.684Z" fill="#fff"/>
</svg>
