<svg xmlns="http://www.w3.org/2000/svg" width="16" height="16.005" viewBox="0 0 16 16.005">
  <path id="Path_8723" data-name="Path 8723" d="M114.1,111.636c-.1-.1-.2-.211-.379-.4a3.156,3.156,0,0,0,.4-.289q2.192-2.182,4.374-4.372a4.429,4.429,0,0,0,.39-.423,1.745,1.745,0,0,0-1.021-2.782,1.766,1.766,0,0,0-1.713.571q-2.269,2.278-4.546,4.55c-.1.1-.212.2-.383.361a4.078,4.078,0,0,0-.3-.394q-2.2-2.205-4.4-4.4a1.785,1.785,0,1,0-2.5,2.48c1.574,1.573,3.15,3.146,4.763,4.756-.137.144-.236.254-.342.36q-2.273,2.274-4.549,4.547a1.764,1.764,0,0,0-.573,1.713,1.674,1.674,0,0,0,1.226,1.317,1.7,1.7,0,0,0,1.773-.48q2.324-2.312,4.637-4.633c.1-.1.212-.2.335-.313,1.021,1.025,2.01,2.018,3,3.009.66.662,1.314,1.329,1.986,1.979a1.757,1.757,0,0,0,2.959-.9,1.788,1.788,0,0,0-.592-1.71q-2.279-2.269-4.549-4.547Z" transform="translate(-103.281 -103.308)" fill="#fff"/>
</svg>
