<svg xmlns="http://www.w3.org/2000/svg" width="22.548" height="27" viewBox="0 0 22.548 27">
  <path id="Union_30" data-name="Union 30" d="M4.169,27c-.307-.064-.619-.11-.92-.2A4.225,4.225,0,0,1,.017,22.76a14.379,14.379,0,0,1,.936-6.1A5.6,5.6,0,0,1,3.46,13.646a4.943,4.943,0,0,1,2.46-.589,1.9,1.9,0,0,1,.808.278c.4.218.772.488,1.162.728a6.022,6.022,0,0,0,6.786-.005c.314-.194.634-.382.929-.6a2.253,2.253,0,0,1,1.779-.361,5.009,5.009,0,0,1,3.829,2.746,11.267,11.267,0,0,1,1.231,4.378,21.7,21.7,0,0,1,.1,2.366,4.32,4.32,0,0,1-3.995,4.366A1.026,1.026,0,0,0,18.38,27ZM11.1,13.009a6.472,6.472,0,1,1,.06,0Z" transform="translate(0)" fill="#fff"/>
</svg>
