<svg xmlns="http://www.w3.org/2000/svg" width="24" height="24" viewBox="0 0 24 24">
  <path id="Union_53" data-name="Union 53" d="M14.484,24a4.476,4.476,0,0,1-.5-.185A1.674,1.674,0,0,1,13,22.256c-.016-1.507-.021-3.015,0-4.522A1.73,1.73,0,0,1,14.805,16c1.8-.008,3.593,0,5.389,0,.64,0,1.281,0,1.921,0a1.755,1.755,0,0,1,1.851,1.427.282.282,0,0,0,.033.061V22.5a5.882,5.882,0,0,1-.375.814A1.755,1.755,0,0,1,22.5,24ZM1.5,24a1.833,1.833,0,0,1-1.284-.919A5.444,5.444,0,0,1,0,22.547V11.484a.2.2,0,0,0,.023-.041A1.776,1.776,0,0,1,1.955,10q3.585,0,7.17,0A1.765,1.765,0,0,1,11,11.876c0,.945,0,1.89,0,2.835q0,3.714,0,7.428A1.751,1.751,0,0,1,10,23.827,4.008,4.008,0,0,1,9.516,24ZM14.922,14a2.492,2.492,0,0,1-.6-.063A1.744,1.744,0,0,1,13,12.148q0-3.316,0-6.631c0-1.226,0-2.453,0-3.679A1.758,1.758,0,0,1,14.132.116c.115-.044.235-.077.353-.116h8.062a1.8,1.8,0,0,1,1.048.648A6.5,6.5,0,0,1,24,1.5V12.516a.158.158,0,0,0-.025.039A1.773,1.773,0,0,1,22.045,14h-3Q16.981,14,14.922,14ZM1.792,8A1.739,1.739,0,0,1,.043,6.623.878.878,0,0,0,0,6.516V1.453c.029-.079.06-.157.086-.236A1.7,1.7,0,0,1,1,.175C1.147.107,1.3.058,1.453,0H9.516a5.14,5.14,0,0,1,.866.434A1.619,1.619,0,0,1,11,1.79c0,1.476.011,2.952,0,4.428A1.735,1.735,0,0,1,9.219,8q-1.779.008-3.558.008Q3.726,8.007,1.792,8Z" fill="#fff"/>
</svg>
