<svg id="Group_9873" data-name="Group 9873" xmlns="http://www.w3.org/2000/svg" xmlns:xlink="http://www.w3.org/1999/xlink" width="14" height="14" viewBox="0 0 14 14">
  <defs>
    <clipPath id="clip-path">
      <rect id="Rectangle_244" data-name="Rectangle 244" width="14" height="14" fill="#fff"/>
    </clipPath>
  </defs>
  <g id="Group_9816" data-name="Group 9816" clip-path="url(#clip-path)">
    <path id="Union_42" data-name="Union 42" d="M13.054,14H.942a.876.876,0,1,1-.122-1.748c.059,0,.118,0,.178,0H12.932A.915.915,0,0,1,14,12.988v.273a2.15,2.15,0,0,1-.115.289A.853.853,0,0,1,13.15,14h-.1ZM6.349,10.32Q4.825,8.8,3.3,7.276A.853.853,0,0,1,3.06,6.4a.821.821,0,0,1,.635-.614.857.857,0,0,1,.849.252q.724.726,1.449,1.451a1.039,1.039,0,0,1,.09.12l.042-.02V7.434c0-2.11.009-4.219-.006-6.329A.993.993,0,0,1,6.836,0h.3A.6.6,0,0,0,7.2.025a.866.866,0,0,1,.674.867q0,1.681,0,3.363V7.612c.055-.05.091-.081.124-.115C8.492,7,8.981,6.507,9.48,6.02a.875.875,0,1,1,1.2,1.269Q9.518,8.452,8.354,9.618c-.235.235-.469.472-.706.705a.873.873,0,0,1-1.3,0Z" transform="translate(0 0)" fill="#fff"/>
  </g>
</svg>
