<svg xmlns="http://www.w3.org/2000/svg" width="14" height="14.651" viewBox="0 0 14 14.651">
  <path id="Path_8502" data-name="Path 8502" d="M115.906,28.1l-6.512,4.884a.5.5,0,0,0-.193.392v8.79a.508.508,0,0,0,.488.488h4.4a.508.508,0,0,0,.488-.488V38.1h3.256v4.07a.508.508,0,0,0,.488.488h4.4a.508.508,0,0,0,.488-.488v-8.79a.5.5,0,0,0-.193-.392L116.5,28.1a.5.5,0,0,0-.59,0Zm.295,1,6.023,4.517v8.058h-3.419v-4.07a.508.508,0,0,0-.488-.488h-4.233a.508.508,0,0,0-.488.488v4.07h-3.419V33.621Z" transform="translate(-109.201 -28.004)" fill="#11299e"/>
</svg>
