<svg xmlns="http://www.w3.org/2000/svg" width="20.56" height="27" viewBox="0 0 20.56 27">
  <path id="Path_8525" data-name="Path 8525" d="M13.761,27h-.475c-.3-.21-.609-.4-.883-.634-.645-.554-1.276-1.125-1.9-1.7a.27.27,0,0,0-.44,0c-.64.587-1.284,1.169-1.942,1.735-.26.224-.562.4-.845.6H6.8a7.95,7.95,0,0,1-.82-.549c-.681-.583-1.345-1.185-2.006-1.79-.155-.142-.259-.152-.418-.007-.512.468-1.04.92-1.556,1.384a1.144,1.144,0,0,1-1.309.267A1.16,1.16,0,0,1,0,25.133Q0,13.495,0,1.856A1.152,1.152,0,0,1,.679.7,1.137,1.137,0,0,1,1.989.96c.5.447,1.008.876,1.5,1.333.2.187.33.2.541.007C4.7,1.671,5.4,1.063,6.084.449a1.2,1.2,0,0,1,1.876,0c.7.629,1.4,1.25,2.1,1.885a.271.271,0,0,0,.441,0c.713-.653,1.437-1.293,2.157-1.938A1.168,1.168,0,0,1,14.414.4c.723.641,1.448,1.281,2.16,1.935.177.162.289.153.459,0,.5-.464,1.024-.911,1.537-1.366A1.276,1.276,0,0,1,19.342.6a1.16,1.16,0,0,1,1.217,1.279q0,11.625,0,23.251a1.158,1.158,0,0,1-.689,1.171,1.144,1.144,0,0,1-1.308-.268c-.509-.459-1.033-.9-1.536-1.367-.177-.164-.29-.146-.459.009-.647.595-1.3,1.185-1.966,1.756a8.426,8.426,0,0,1-.84.566m-3.48-12.983q2.9,0,5.8,0a1.551,1.551,0,0,0,.391-.039.453.453,0,0,0,.357-.462c.01-.347-.228-.528-.7-.528q-5.853,0-11.706,0a1.277,1.277,0,0,0-.338.039.494.494,0,0,0,0,.95,1.525,1.525,0,0,0,.391.039q2.9,0,5.8,0m.028,2.8H4.457a1.946,1.946,0,0,0-.289.01.494.494,0,0,0-.437.51.488.488,0,0,0,.459.487,2.365,2.365,0,0,0,.263.008H16.1a2.138,2.138,0,0,0,.289-.011.486.486,0,0,0,.431-.559c-.032-.285-.244-.444-.612-.444q-2.952,0-5.9,0M7.38,10.182c1.037,0,2.074,0,3.111,0,.426,0,.672-.285.577-.649-.064-.243-.265-.363-.626-.363q-3.032,0-6.064,0a1.259,1.259,0,0,0-.262.018.5.5,0,0,0-.327.725.567.567,0,0,0,.559.272c1.011,0,2.021,0,3.032,0" transform="translate(-0.001 0)" fill="#fff"/>
</svg>
