<svg xmlns="http://www.w3.org/2000/svg" width="11" height="11.004" viewBox="0 0 11 11.004">
  <path id="Path_8669" data-name="Path 8669" d="M5.107,5.89l-1.182-.1L1.184,5.561C.934,5.54.683,5.518.433,5.5A.434.434,0,0,1,.008,5.15a.429.429,0,0,1,.274-.475L5.937,2.082,10.355.057A.419.419,0,0,1,11,.33a.609.609,0,0,1-.058.328Q10.159,2.379,9.367,4.1L6.351,10.676c-.109.238-.259.344-.46.325a.423.423,0,0,1-.383-.391c-.056-.646-.108-1.292-.161-1.938q-.11-1.325-.22-2.649c0-.039-.011-.078-.019-.133" transform="translate(0 0)" fill="#fff"/>
</svg>
