<svg xmlns="http://www.w3.org/2000/svg" width="27" height="26.993" viewBox="0 0 27 26.993">
  <path id="Union_28" data-name="Union 28" d="M25.938,26.993c-1.96-.011-3.921-.01-5.881-.008H17.929c-.65,0-.947-.3-.944-.951a6.851,6.851,0,0,1,.154-1.987,4.008,4.008,0,0,1,1.574-2.171,4.5,4.5,0,0,0,6.558,0,3.973,3.973,0,0,1,1.673,2.593c.016.084.038.167.057.251v1.687a1.008,1.008,0,0,1-1.046.587ZM.82,26.984a.754.754,0,0,1-.8-.689A7.056,7.056,0,0,1,.17,24.02a3.977,3.977,0,0,1,1.573-2.139A4.5,4.5,0,0,0,8.3,21.872a3.949,3.949,0,0,1,1.719,3.095c.023.4.012.808,0,1.211a.781.781,0,0,1-.8.8q-2.1,0-4.2,0ZM19.2,19.572a.476.476,0,0,0-.377-.391c-1.075-.321-2.146-.657-3.216-1a.269.269,0,0,0-.335.09,2.344,2.344,0,0,1-3.534.009.271.271,0,0,0-.332-.1c-1.119.357-2.24.709-3.366,1.046-.185.055-.188.182-.222.311a2.9,2.9,0,1,1-.282-2.149c.051.09.1.182.16.293l1.209-.377c.67-.208,1.339-.418,2.011-.619a.271.271,0,0,0,.234-.259,2.354,2.354,0,0,1,1.41-1.9.284.284,0,0,0,.144-.2c.008-1.063,0-2.125,0-3.188,0-.015-.013-.03-.031-.071h-.272q-1.515,0-3.031,0a.8.8,0,0,1-.877-.885,7.011,7.011,0,0,1,.157-2.066,3.971,3.971,0,0,1,1.559-2.147,4.545,4.545,0,0,0,6.579,0A3.788,3.788,0,0,1,18.449,8.6a11.455,11.455,0,0,1,.055,1.734.771.771,0,0,1-.834.738c-1.019,0-2.038,0-3.057,0H14.3v.35c0,.949,0,1.9.006,2.845a.337.337,0,0,0,.136.258,2.367,2.367,0,0,1,1.417,1.895.274.274,0,0,0,.225.266c1.007.3,2.013.612,3.015.935.185.06.251.016.337-.148a2.887,2.887,0,0,1,3.376-1.436,2.9,2.9,0,0,1-.571,5.672q-.125.011-.249.011A2.893,2.893,0,0,1,19.2,19.572ZM10.648,3.358A2.888,2.888,0,0,1,12.99.049,1.017,1.017,0,0,0,13.136,0h.738c.159.042.32.079.478.127a2.9,2.9,0,0,1-.833,5.67h-.012A2.893,2.893,0,0,1,10.648,3.358Z" transform="translate(0)" fill="#fff"/>
</svg>
