<svg xmlns="http://www.w3.org/2000/svg" width="27" height="27.072" viewBox="0 0 27 27.072">
  <path id="Path_8526" data-name="Path 8526" d="M4.253,21.559c0-.374-.011-.748,0-1.121a.5.5,0,0,0-.411-.557c-.731-.222-1.462-.446-2.189-.682A2.282,2.282,0,0,1,.511,15.566C.939,15,1.358,14.433,1.8,13.878a.477.477,0,0,0,0-.682C1.371,12.657.963,12.1.548,11.555A2.281,2.281,0,0,1,1.736,7.846c.682-.215,1.366-.423,2.049-.637.4-.125.467-.22.468-.631,0-.678,0-1.357,0-2.035A2.332,2.332,0,0,1,7.268,2.251c.736.2,1.462.446,2.193.67.452.138.562.1.852-.28.4-.532.8-1.066,1.211-1.6a2.391,2.391,0,0,1,3.959.008c.417.546.83,1.1,1.247,1.643a.55.55,0,0,0,.762.239c.7-.216,1.4-.441,2.106-.653a2.355,2.355,0,0,1,3.051,1.545,2.723,2.723,0,0,1,.093.7q.018,1.062,0,2.124a.489.489,0,0,0,.4.534c.7.211,1.4.431,2.105.654a2.293,2.293,0,0,1,1.234,3.682c-.428.563-.848,1.133-1.284,1.689a.463.463,0,0,0,0,.657c.431.548.847,1.108,1.266,1.665A2.275,2.275,0,0,1,25.333,19.2c-.7.235-1.4.439-2.1.658-.421.131-.482.213-.482.647,0,.678,0,1.357,0,2.035a2.332,2.332,0,0,1-3,2.28c-.718-.2-1.424-.436-2.135-.656-.532-.165-.618-.138-.949.3L15.5,25.991a2.4,2.4,0,0,1-4.012-.009c-.41-.54-.826-1.075-1.226-1.622a.6.6,0,0,0-.744-.233c-.756.241-1.511.488-2.276.7a2.31,2.31,0,0,1-2.9-1.625,10.442,10.442,0,0,1-.124-1.639l.034,0m4.91-2.636a.978.978,0,0,0,.647-.355q4.356-4.369,8.716-8.733c.035-.035.07-.069.1-.106a.973.973,0,0,0,.154-1.069.847.847,0,0,0-.918-.491,1.458,1.458,0,0,0-.7.374q-4.342,4.32-8.661,8.663a2.184,2.184,0,0,0-.164.169A.919.919,0,0,0,8.215,18.4a.931.931,0,0,0,.949.527m2.813-9.09a1.88,1.88,0,0,0-1.875-1.9,1.887,1.887,0,0,0-.02,3.773,1.872,1.872,0,0,0,1.9-1.875m3.046,7.417a1.88,1.88,0,0,0,1.887,1.887,1.887,1.887,0,0,0,0-3.774,1.872,1.872,0,0,0-1.884,1.887" transform="translate(0 0)" fill="#fff"/>
</svg>
