<svg id="Group_9873" data-name="Group 9873" xmlns="http://www.w3.org/2000/svg" xmlns:xlink="http://www.w3.org/1999/xlink" width="14" height="14" viewBox="0 0 14 14">
  <defs>
    <clipPath id="clip-path">
      <rect id="Rectangle_244" data-name="Rectangle 244" width="14" height="14" fill="#fff"/>
    </clipPath>
  </defs>
  <g id="Group_9816" data-name="Group 9816" clip-path="url(#clip-path)">
    <path id="Union_42" data-name="Union 42" d="M13.054,0H.942A.876.876,0,1,0,.819,1.748c.059,0,.118,0,.178,0H12.932A.915.915,0,0,0,14,1.012V.738a2.15,2.15,0,0,0-.115-.289A.853.853,0,0,0,13.15,0h-.1ZM6.349,3.68Q4.825,5.2,3.3,6.724A.853.853,0,0,0,3.06,7.6a.821.821,0,0,0,.635.614.857.857,0,0,0,.849-.252q.724-.726,1.449-1.451a1.039,1.039,0,0,0,.09-.12l.042.02v.155c0,2.11.009,4.219-.006,6.329A.993.993,0,0,0,6.836,14h.3a.6.6,0,0,1,.063-.025.866.866,0,0,0,.674-.867q0-1.681,0-3.363V6.388c.055.05.091.081.124.115.493.493.982.99,1.481,1.477a.875.875,0,1,0,1.2-1.269Q9.518,5.548,8.354,4.382c-.235-.235-.469-.472-.706-.705a.873.873,0,0,0-1.3,0Z" transform="translate(0 0)" fill="#fff"/>
  </g>
</svg>
