<svg id="Group_9644" data-name="Group 9644" xmlns="http://www.w3.org/2000/svg" xmlns:xlink="http://www.w3.org/1999/xlink" width="24" height="20.999" viewBox="0 0 24 20.999">
  <defs>
    <clipPath id="clip-path">
      <rect id="Rectangle_228" data-name="Rectangle 228" width="24" height="20.999" fill="#0f0f0f"/>
    </clipPath>
  </defs>
  <g id="Group_9644-2" data-name="Group 9644" clip-path="url(#clip-path)">
    <path id="Union_24" data-name="Union 24" d="M3.078,21A2.973,2.973,0,0,1,.132,18.839a3.458,3.458,0,0,1-.121-.923c-.007-5-.023-10,.006-15A2.949,2.949,0,0,1,2.577.039,4.042,4.042,0,0,1,3.138,0Q10,0,16.867,0A2,2,0,0,1,18.96,1.637,5.078,5.078,0,0,1,19,2.5c0,.49,0,.981,0,1.506.327,0,.615,0,.9,0A1.989,1.989,0,0,1,22,6.113c0,.622,0,1.245,0,1.89-.117,0-.209,0-.3,0-.289,0-.578,0-.867,0-.641,0-1.283-.006-1.918.053a4.488,4.488,0,0,0-.187,8.873A4.64,4.64,0,0,0,19.54,17c.734.009,1.468,0,2.2,0H22c0,.528.006,1.033,0,1.538a4.848,4.848,0,0,1-.056.908,1.953,1.953,0,0,1-1.85,1.545c-.062,0-.125,0-.187,0H3.078Zm-.1-18.992a1,1,0,0,0-.933.723A1.012,1.012,0,0,0,3.124,4.007q6.814,0,13.628,0c.076,0,.151-.008.239-.013V2H3.321C3.207,2,3.093,2,2.978,2.006Zm20.055,13.5c-.731-.013-1.461-.011-2.192-.008-.44,0-.881,0-1.321,0a3,3,0,0,1-.14-5.992c1.288-.021,2.577-.006,3.865-.006a.82.82,0,0,1,.756.562v4.875a.9.9,0,0,1-.933.569Zm-3.54-4a1,1,0,1,0,.007,0Z" transform="translate(0 0)" fill="#0f0f0f"/>
  </g>
</svg>
