<svg xmlns="http://www.w3.org/2000/svg" xmlns:xlink="http://www.w3.org/1999/xlink" width="560" height="387" viewBox="0 0 560 387">
  <defs>
    <linearGradient id="linear-gradient" x1="0.5" x2="0.5" y2="1" gradientUnits="objectBoundingBox">
      <stop offset="0" stop-color="#11299e"/>
      <stop offset="1" stop-color="#09154f"/>
    </linearGradient>
    <clipPath id="clip-path">
      <rect id="Rectangle_215" data-name="Rectangle 215" width="560" height="387" rx="10" fill="url(#linear-gradient)"/>
    </clipPath>
  </defs>
  <g id="Group_9637" data-name="Group 9637" transform="translate(-280 -180)">
    <rect id="Rectangle_215-2" data-name="Rectangle 215" width="560" height="387" rx="10" transform="translate(280 180)" fill="url(#linear-gradient)"/>
    <g id="Mask_Group_8" data-name="Mask Group 8" transform="translate(280 180)" clip-path="url(#clip-path)">
      <g id="Group_9634" data-name="Group 9634" transform="translate(-6.109 284.836)">
        <path id="Path_3811" data-name="Path 3811" d="M-28.6,226.553s115.112-54.579,285.8-29.889,248.087,8.447,248.087,8.447,85.011-15.594,152.821-4.548,3.8,144.245,3.8,144.245H-28.6Z" transform="translate(28.6 -159.123)" fill="#81e2ff" opacity="0.2"/>
        <path id="Path_3812" data-name="Path 3812" d="M-23.5,285.7s83.357-74.072,262.641-98.112,201.116,80.569,292.411,70.823,75.584-54.579,117.1-67.574S698.1,214.873,698.1,214.873V363.666H-23.5Z" transform="translate(31.935 -183.984)" fill="#90f0ff" opacity="0.1"/>
      </g>
    </g>
  </g>
</svg>
