<svg xmlns="http://www.w3.org/2000/svg" version="1.1" xmlns:xlink="http://www.w3.org/1999/xlink" xmlns:svgjs="http://svgjs.com/svgjs" width="1000" height="1000"><rect width="1000" height="1000" rx="500" ry="500" fill="#d1d1d1"></rect><g transform="matrix(26.595744680851062,0,0,26.595744680851062,250.3703537725388,249.95388172116688)"><svg xmlns="http://www.w3.org/2000/svg" version="1.1" xmlns:xlink="http://www.w3.org/1999/xlink" xmlns:svgjs="http://svgjs.com/svgjs" width="18.8" height="18.8"><svg xmlns="http://www.w3.org/2000/svg" viewBox="0 0 18.8 18.8">
<path d="M14.8 18.4h-.09a23 23 0 0 0-1.44-.01h-1.29V14a1.67 1.67 0 0 0-1.33-1.67 1.19 1.19 0 0 0-.25-.03l-.56-.01c-.48 0-.97-.02-1.44.01A1.63 1.63 0 0 0 6.8 14v4.35l-.39.03H3.9a1.37 1.37 0 0 1-1.42-1.41v-6.21c0-.2-.05-.25-.05-.25s-.05-.04-.25-.04h-.72a1.04 1.04 0 0 1-.98-.65 1.02 1.02 0 0 1 .21-1.16l.69-.7.27-.26L8.52.83a1.1 1.1 0 0 1 1.74 0l7.68 7.68.03.03a2 2 0 0 1 .17.18 1.06 1.06 0 0 1-.8 1.74h-.75a.43.43 0 0 0-.25.05.4.4 0 0 0-.04.24v6.08a1.57 1.57 0 0 1-.44 1.17 1.48 1.48 0 0 1-1.05.4m-.9-.85c.28 0 .56 0 .84.02a.7.7 0 0 0 .54-.17.74.74 0 0 0 .19-.56c-.02-1.47-.01-2.95-.01-4.4v-1.7a1.01 1.01 0 0 1 1.12-1.11h.73a.2.2 0 0 0 .2-.13.2.2 0 0 0-.04-.26 1.35 1.35 0 0 0-.1-.1l-.03-.04-7.68-7.67c-.17-.18-.26-.2-.28-.2-.02 0-.1.02-.28.2L2.24 8.28l-.27.27-.68.68a.2.2 0 0 0-.04.25.2.2 0 0 0 .22.14h.71a1.01 1.01 0 0 1 1.14 1.13v6.2a.54.54 0 0 0 .59.6h2.06V14a2.58 2.58 0 0 1 .67-1.75 2.52 2.52 0 0 1 1.7-.78c.51-.03 1.02-.02 1.51-.01h.55a2 2 0 0 1 .43.06 2.5 2.5 0 0 1 1.43.88 2.56 2.56 0 0 1 .55 1.6v3.55h1.1" stroke="currentColor" stroke-width="0.75"></path>
</svg></svg></g></svg>