<svg xmlns="http://www.w3.org/2000/svg" xmlns:xlink="http://www.w3.org/1999/xlink" viewBox="0 0 24 24">
  <defs>
    <path id="a" d="M0 12.4v1.5c0 .8.7 1.5 1.5 1.5S3 14.7 3 13.9v-1.5z" style="fill:#c0392b;fill-opacity:1"/>
    <path id="b" d="M0 8h3v4.4H0z" style="fill:#c0392b;stroke-width:1.25457;fill-opacity:1"/>
    <path id="c" d="M3 8h3v4.4H3z" style="fill:#bdc3c7;fill-opacity:1;stroke-width:1.25457"/>
  </defs>
  <path fill="#95a5a6" d="M0 22h24l-4-6H4l-4 6"/>
  <path fill="#f1c40f" d="M2 4h20v17H2z"/>
  <path fill="#ecf0f1" d="M4 11h9v9H4zm10 1h6v9h-6z"/>
  <path fill="#f39c12" d="M2 9h20v4H2z"/>
  <path fill="#bdc3c7" d="M14 11h6v1h-6zM4 11h9v2H4z"/>
  <g style="fill:#c0392b;fill-opacity:1">
    <use xlink:href="#a" style="fill:#c0392b;fill-opacity:1"/>
    <use xlink:href="#b" style="fill:#c0392b;stroke-width:1.25457;fill-opacity:1"/>
  </g>
  <path fill="#ecf0f1" d="M10 4h2v4H9z"/>
  <path fill="#e74c3c" d="M12 4h2l1 4h-3z" style="fill:#e74c3c;fill-opacity:1"/>
  <path fill="#ecf0f1" d="M5 4h3L6 8H3z"/>
  <path fill="#e74c3c" d="M8 4h2L9 8H6z" style="fill:#e74c3c;fill-opacity:1"/>
  <path fill="#ecf0f1" d="M16 4h-2l1 4h3z"/>
  <path fill="#e74c3c" d="M19 4h-3l2 4h3zM2 4h3L3 8H0z" style="fill:#e74c3c;fill-opacity:1"/>
  <path fill="#ecf0f1" d="M22 4h-3l2 4h3z"/>
  <path fill="#3498db" d="M15 13h4v8h-4z" style="fill:#999"/>
  <path fill="#ecf0f1" d="M14 16h5v1h-5z"/>
  <path fill="#bdc3c7" d="M19 12h1v1h-1z"/>
  <path fill="#2980b9" d="M15 12h4v1h-4z" style="fill:#666"/>
  <path fill="#bdc3c7" d="M14 12h1v1h-1z"/>
  <path fill="#3498db" d="M5 12h7v7H5z" style="fill:#999"/>
  <g fill="#ecf0f1">
    <path d="M4 15h9v1H4z"/>
    <path d="M8 12h1v7H8zM1 4h22l-3.7-2H4.7L1 4"/>
  </g>
  <path fill="#bdc3c7" d="M8 12h1v1H8zM1 3h22l-3.7-2H4.7L1 3"/>
  <path fill="#7f8c8d" d="M1 3h22v1H1z"/>
  <path fill="#2980b9" d="M15 18h4v3h-4z" style="fill:#666"/>
  <path fill="#7f8c8d" d="M0 22h24v1H0z"/>
  <path fill="#2980b9" d="M5 12v1h3v-1H5zm4 0v1h3v-1H9zm-4 6v1h3v-1H5zm4 0v1h3v-1H9z" style="fill:#666"/>
  <path fill="#c0392b" d="m2 4-.5 1h3L5 4H2zm5 0-.3 1h3l.3-1H7zm5 0v1h2.3L14 4h-2zm4 0 .5 1h3L19 4h-3z" style="fill:#c0392b;fill-opacity:1"/>
  <path fill="#bdc3c7" d="m5 4-.5 1h3L8 4zm5 0-.3 1H12V4zm4 0 .3 1h2.2L16 4zm5 0 .5 1h3L22 4zM3 12.4v1.5c0 .8.7 1.5 1.5 1.5S6 14.7 6 13.9v-1.5z"/>
  <use xlink:href="#c" style="fill:#bdc3c7;fill-opacity:1;stroke-width:1.25457"/>
  <g style="fill:#c0392b;fill-opacity:1" transform="translate(6)">
    <use xlink:href="#a" style="fill:#c0392b;fill-opacity:1"/>
    <use xlink:href="#b" style="fill:#c0392b;stroke-width:1.25457;fill-opacity:1"/>
  </g>
  <g style="fill:#c0392b;fill-opacity:1" transform="translate(12)">
    <use xlink:href="#a" style="fill:#c0392b;fill-opacity:1"/>
    <use xlink:href="#b" style="fill:#c0392b;stroke-width:1.25457;fill-opacity:1"/>
  </g>
  <g style="fill:#c0392b;fill-opacity:1" transform="translate(18)">
    <use xlink:href="#a" style="fill:#c0392b;fill-opacity:1"/>
    <use xlink:href="#b" style="fill:#c0392b;stroke-width:1.25457;fill-opacity:1"/>
  </g>
  <path fill="#bdc3c7" d="M9 12.4v1.5c0 .8.7 1.5 1.5 1.5s1.5-.7 1.5-1.5v-1.5z"/>
  <use xlink:href="#c" style="fill:#bdc3c7;fill-opacity:1;stroke-width:1.25457" transform="translate(6)"/>
  <path fill="#bdc3c7" d="M15 12.4v1.5c0 .8.7 1.5 1.5 1.5s1.5-.7 1.5-1.5v-1.5z"/>
  <use xlink:href="#c" style="fill:#bdc3c7;fill-opacity:1;stroke-width:1.25457" transform="translate(12)"/>
  <path fill="#bdc3c7" d="M21 12.4v1.5c0 .8.7 1.5 1.5 1.5s1.5-.7 1.5-1.5v-1.5z"/>
  <use xlink:href="#c" style="fill:#bdc3c7;fill-opacity:1;stroke-width:1.25457" transform="translate(18)"/>
</svg>