<svg xmlns="http://www.w3.org/2000/svg" xmlns:xlink="http://www.w3.org/1999/xlink" width="450" height="387" viewBox="0 0 450 387">
  <defs>
    <!-- <linearGradient id="linear-gradient" x1="0.5" x2="0.5" y2="1" gradientUnits="objectBoundingBox">
      <stop offset="0" stop-color="#9035be"/>
      <stop offset="1" stop-color="#4c0091"/>
    </linearGradient> -->
    <!-- <linearGradient id="linear-gradient-2" x1="0.5" x2="0.5" y2="1" gradientUnits="objectBoundingBox">
      <stop offset="0" stop-color="#2dbb5c"/>
      <stop offset="1" stop-color="#02762c"/>
    </linearGradient> -->
    <!-- <clipPath id="clip-path">
      <rect id="Rectangle_218" data-name="Rectangle 218" width="450" height="387" rx="10" transform="translate(1440 866)" fill="url(#linear-gradient)"/>
    </clipPath> -->
  </defs>
  <g id="Group_9662" data-name="Group 9662" transform="translate(-1440 -1038)">
    <rect id="Rectangle_217" data-name="Rectangle 217" width="450" height="387" rx="10" transform="translate(1440 1038)" fill="url(#linear-gradient-2)"/>
    <g id="Mask_Group_9" data-name="Mask Group 9" transform="translate(0 172)" clip-path="url(#clip-path)">
      <path id="Union_25" data-name="Union 25" d="M-1712.936-2808.436a33.355,33.355,0,0,1-22.924-18.307h-64.279a19.128,19.128,0,0,1-13.541-5.617,19.218,19.218,0,0,1-5.609-13.57v-54.938h-18.026a33.346,33.346,0,0,1-22.913,18.3,13.9,13.9,0,0,1-12.6-2.765,13.963,13.963,0,0,1-4.917-11.976,34.064,34.064,0,0,1,.55-3.888h0a19.092,19.092,0,0,1-10.031-5.294,19.209,19.209,0,0,1-5.608-13.57v-66.787a19.206,19.206,0,0,1,5.608-13.566,19.124,19.124,0,0,1,13.538-5.621h100.647a19.134,19.134,0,0,1,13.541,5.621,19.206,19.206,0,0,1,5.608,13.566v54.934h54.4a19.124,19.124,0,0,1,13.537,5.621,19.212,19.212,0,0,1,5.609,13.57v66.787a19.221,19.221,0,0,1-5.609,13.57,19.14,19.14,0,0,1-10.031,5.294v0a33.821,33.821,0,0,1,.549,3.884,13.958,13.958,0,0,1-4.916,11.977,13.88,13.88,0,0,1-8.935,3.257A13.894,13.894,0,0,1-1712.936-2808.436Zm-99.026-37.5a11.854,11.854,0,0,0,3.463,8.374,11.824,11.824,0,0,0,8.361,3.47h66.624a3.664,3.664,0,0,1,3.371,2.236c2.924,6.889,8.467,13.764,18.974,16.287l.127.032a6.565,6.565,0,0,0,5.983-1.3,6.59,6.59,0,0,0,2.326-5.676c0-.015,0-.029,0-.044a25.18,25.18,0,0,0-1.421-6.6c.531,1.446-1.307-4.935,3.459-4.935h1.208a11.809,11.809,0,0,0,8.356-3.469,11.855,11.855,0,0,0,3.463-8.374v-66.787a11.863,11.863,0,0,0-3.463-8.379,11.81,11.81,0,0,0-8.356-3.47h-54.4v4.512a19.21,19.21,0,0,1-5.608,13.57,19.133,19.133,0,0,1-13.541,5.62h-38.926Zm-16.109-94.829a16.046,16.046,0,0,0-.077,1.806v.826a4.156,4.156,0,0,0,.872,2.993,4.865,4.865,0,0,0,3.4,1.083,11.816,11.816,0,0,0,3.268-.334,2.6,2.6,0,0,0,1.572-1.344,7.035,7.035,0,0,0,.514-3.07q0-2.886-1-3.9a4.494,4.494,0,0,0-3.268-1.006,11.018,11.018,0,0,0-3.318.364,2.439,2.439,0,0,0-1.469,1.16h0A4.337,4.337,0,0,0-1828.071-2940.761Zm7.823-22.9a3.46,3.46,0,0,1,.952,2.6,3.183,3.183,0,0,1-1.261,2.658,7.82,7.82,0,0,1-2.754,1.392,6.148,6.148,0,0,0-2.751,1.7,4.8,4.8,0,0,0-1.264,3.509l-.051.412h0a10.862,10.862,0,0,0,.077,1.52,3.266,3.266,0,0,0,.44,1.108,1.994,1.994,0,0,0,1.261.877,8.969,8.969,0,0,0,2.393.26,9.781,9.781,0,0,0,2.4-.235,2.165,2.165,0,0,0,1.285-.77,2.494,2.494,0,0,0,.461-1.006,8.386,8.386,0,0,0,.08-1.344l.821-.258a12.839,12.839,0,0,0,4.225-2.89,8.762,8.762,0,0,0,1.927-2.967,10.345,10.345,0,0,0,.8-4.1,11.284,11.284,0,0,0-3.448-8.151,11.943,11.943,0,0,0-8.906-3.505,12.41,12.41,0,0,0-4.686.852,11.575,11.575,0,0,0-3.268,1.857,11.584,11.584,0,0,0-2.059,2.346,11.5,11.5,0,0,0-1.106,1.883c-.136.361-.309.808-.514,1.341a4.317,4.317,0,0,0-.31,1.575q0,1.751,3.088,2.937a7.51,7.51,0,0,0,2.576.621,2.027,2.027,0,0,0,1.593-.7,6.006,6.006,0,0,0,1.084-2.037l.154-.616a2.521,2.521,0,0,1,1.105-1.211,5.192,5.192,0,0,1,2.807-.6A3.929,3.929,0,0,1-1820.248-2963.664Zm66.192,102.234a4.648,4.648,0,0,1-.491-1.421,15.786,15.786,0,0,1-.077-1.829v-.826a4.162,4.162,0,0,1,1-3.094,4.516,4.516,0,0,1,3.242-.98,11.037,11.037,0,0,1,3.294.36,2.7,2.7,0,0,1,1.572,1.37,6.817,6.817,0,0,1,.514,3.018c0,1.922-.334,3.222-1,3.891s-2.041,1.007-4.118,1.007S-1753.51-2860.431-1754.056-2861.429Zm1.645-12.431h0a2.234,2.234,0,0,1-1.389-.9,3.074,3.074,0,0,1-.491-1.16,12.065,12.065,0,0,1-.077-1.6v-16.353a12.687,12.687,0,0,1,.077-1.626,3.722,3.722,0,0,1,.464-1.237,2.154,2.154,0,0,1,1.363-.98,9.877,9.877,0,0,1,2.626-.282,9.874,9.874,0,0,1,2.624.282,2.3,2.3,0,0,1,1.392.954,3.239,3.239,0,0,1,.488,1.211,12.728,12.728,0,0,1,.077,1.625v16.353a12.109,12.109,0,0,1-.077,1.6,3.5,3.5,0,0,1-.461,1.187,2.1,2.1,0,0,1-1.368.929,10.658,10.658,0,0,1-2.623.257A10.692,10.692,0,0,1-1752.411-2873.86Z" transform="translate(3297.916 4055.03)" fill="#fff" opacity="0.1"/>
    </g>
  </g>
</svg>
