<svg width="242" height="156" xmlns="http://www.w3.org/2000/svg"><path d="M55.8 142.5h2.6V155h-2.6zm20.2 0V155h-1.3l-.5-.1c-.2 0-.3-.2-.4-.3l-6.3-8v8.4h-2.2v-12.5h1.9l.1.1.2.3 6.3 7.9v-8.4H76zm13.7 2.4l-.3.2-.3.1-.4-.1-.5-.3-.7-.3a3 3 0 0 0-.9-.1 2 2 0 0 0-1.3.4c-.3.3-.5.6-.5 1 0 .3.1.5.3.7l.6.5 1 .3 1 .4 1 .4.8.7c.3.2.5.5.7.9.2.4.3.8.2 1.3 0 .5 0 1-.3 1.6a3.8 3.8 0 0 1-2.2 2.2 6 6 0 0 1-4.2-.1 5.4 5.4 0 0 1-1.8-1.3l.7-1.2.3-.2.3-.1c.2 0 .4 0 .5.2l.6.4.8.3c.3.2.7.2 1 .2.5 0 1-.1 1.4-.4.4-.3.6-.8.5-1.2 0-.3 0-.6-.2-.8l-.7-.5-.9-.3-1-.4c-.3 0-.6-.2-1-.4a3 3 0 0 1-1.5-1.6l-.3-1.5c0-.9.4-1.8 1.1-2.5l1.3-.8 1.8-.3 2.1.3c.6.3 1.2.6 1.6 1l-.6 1.3zm12.1 8c.4 0 .8 0 1.1-.2l.9-.6.5-1 .2-1.2v-7.4h2.6v7.4c0 .7-.2 1.4-.4 2-.2.7-.6 1.3-1 1.7-.5.5-1 .9-1.7 1.1-1.4.5-3 .5-4.4 0-.6-.2-1.2-.6-1.6-1a5.9 5.9 0 0 1-1.4-3.7v-7.5h2.6v7.4l.1 1.2c.2.4.3.7.6 1l.8.6 1.1.2m22 2.1h-2.3a1 1 0 0 1-1-.5l-2.4-3.8a1 1 0 0 0-.3-.4h-1.4v4.7h-2.6v-12.5h4a8 8 0 0 1 2.1.2c.6.2 1.1.4 1.6.8l.8 1.1.3 1.5a3.8 3.8 0 0 1-.7 2.2 4 4 0 0 1-2 1.4 2.4 2.4 0 0 1 1 .8l2.9 4.5zm-6-6.6l1-.1.8-.5.5-.6v-.9c.1-.5-.1-1-.5-1.3-.5-.4-1.2-.6-1.8-.5h-1.3v4h1.3zm22.4 6.6h-2c-.2 0-.4 0-.5-.2a1 1 0 0 1-.3-.4l-.9-2.3h-5l-.8 2.3a.9.9 0 0 1-.9.6h-2l5-12.5h2.6l4.8 12.5zm-4.3-4.7l-1.3-3.9a13.6 13.6 0 0 1-.5-1.6 14.1 14.1 0 0 1-.6 1.7l-1.3 3.8h3.7zm20.5-7.8V155H155l-.5-.1c-.2 0-.3-.2-.4-.3l-6.3-8v8.4h-2.2v-12.5h1.9l.1.1.2.3 6.3 7.9v-8.4h2.2zm15.4 9.4l.4.1 1 1.1c-.5.7-1.2 1.2-1.9 1.5-.8.3-1.8.5-2.7.5-.8 0-1.7-.2-2.5-.5a5.5 5.5 0 0 1-3.1-3.3 7.5 7.5 0 0 1 .4-5.9 6 6 0 0 1 3.6-2.9 7.2 7.2 0 0 1 4.2.3 6 6 0 0 1 1.8 1.2l-.9 1.2-.2.1-.3.1-.4-.1-.5-.3a3.8 3.8 0 0 0-2-.5c-.4 0-1 0-1.4.3-.4.2-.8.4-1.1.8-.3.4-.6.8-.7 1.3l-.3 1.8c0 .6 0 1.2.3 1.8.1.5.4 1 .7 1.3a3.4 3.4 0 0 0 2.6 1.1h.8a3.3 3.3 0 0 0 1.2-.4l.5-.4.3-.1h.2m9.8-7.5v3.2h4.1v2h-4.1v3.2h5.3v2H179v-12.4h7.9v2zm24.8-77.2c1.3 0 2.6-.3 3.7-.8 1.4-.6 2.6-1.4 3.8-2.3 1.1-.9 2.1-1.9 3-3 .7-1 1-2 1.1-3.2a7 7 0 0 0-.8-3.5c-.3-.8-1-1.4-2-1.4-1.1 0-2.3.2-3.4.7-1 .5-1.8 1.2-2.5 2-.6.9-1.1 1.8-1.5 2.8a21.4 21.4 0 0 0-1.4 8.7zm6.3 22.6a16.5 16.5 0 0 1-13.4-6c-1.5-2-2.6-4-3.4-6.4a26.3 26.3 0 0 1-.5-13.3 34.2 34.2 0 0 1 4.3-11.3c1-1.7 2.2-3.3 3.7-4.6 1.4-1.4 3-2.4 4.8-3.2a14.7 14.7 0 0 1 11-.3 11.6 11.6 0 0 1 7.6 11c0 2.1-.6 4.2-1.5 6-1 2-2.4 4-4 5.6a32.2 32.2 0 0 1-13.8 8l1.4 2.1c.4.5.9 1 1.4 1.3.4.3 1 .6 1.5.7l1.7.2c2 0 4-.4 6-1.2a39.2 39.2 0 0 0 11.8-6.6c1.6-1.2 3.1-2.5 4.5-3.9l6.2 6.5a63 63 0 0 1-18.3 13c-1.7.8-3.5 1.3-5.3 1.8-1.9.4-3.8.6-5.7.6zM169 67.3c1.3 0 2.5-.3 3.7-.8 1.4-.6 2.6-1.4 3.8-2.3 1-.9 2.1-1.9 3-3 .7-1 1.1-2 1.2-3.2a7 7 0 0 0-.9-3.5c-.3-.8-1-1.4-1.9-1.4-1.2 0-2.4.2-3.5.8-1 .5-1.7 1.1-2.4 2-.7.8-1.2 1.7-1.6 2.7a22.7 22.7 0 0 0-1.3 8.8h-.1zm6.4 22.6a16.4 16.4 0 0 1-13.4-6c-1.6-1.9-2.7-4-3.4-6.4a26.3 26.3 0 0 1-.6-13.3 34.2 34.2 0 0 1 4.3-11.3c1-1.7 2.3-3.3 3.8-4.6 1.4-1.3 3-2.4 4.8-3.2a14.7 14.7 0 0 1 11-.3 11.6 11.6 0 0 1 7.5 11.1c0 2-.5 4.1-1.5 6-1 2-2.3 4-4 5.6a32.4 32.4 0 0 1-13.8 8l1.4 2L173 79c.4.3.9.5 1.4.6.6.2 1.2.2 1.7.2 2 0 4.1-.4 6-1.1A39.2 39.2 0 0 0 194 72c1.6-1.2 3-2.5 4.5-4l6.1 6.5a63 63 0 0 1-18.2 13 36 36 0 0 1-5.4 1.8 25 25 0 0 1-5.6.6zm-29.2-73.5a144.4 144.4 0 0 0-6.7 21.5 90.2 90.2 0 0 0-1.8 12.9l5.8-10.9a370.2 370.2 0 0 0 9.2-18c.8-1.7 1.3-3.5 1.5-5.3.1-1.3-.1-2.6-.7-3.7a2.2 2.2 0 0 0-2-1.2c-1.2 0-2.4.4-3.3 1.2a10 10 0 0 0-2 3.5zm-11.5 52.3c-.2 0-.3.4-.5 1.1l-.4 2.8-.4 3.8-.3 4.1-.3 3.8v2.8l.1 11.2.7 6.3c.1 1 .4 2 1 2.8.1.4.5.6 1 .7 1 0 2-.6 2.5-1.5.8-1.2 1.3-2.5 1.5-3.8a71.7 71.7 0 0 0 .6-14.3 67.4 67.4 0 0 0-1.8-10.4A62.7 62.7 0 0 0 136 70c-.4-.9-.8-1.3-1.2-1.3zm-12.7 23v-3a332.4 332.4 0 0 1 8.1-56.3c1.1-4.1 2.4-8.2 4-12.2 1.3-3.5 3-6.8 5-10 1.6-2.6 3.8-5 6.2-6.8 2.2-1.6 4.8-2.5 7.5-2.5a10.7 10.7 0 0 1 6.7 2.5c1 1 1.9 2 2.4 3.4a12 12 0 0 1 1 5.2 28 28 0 0 1-.9 6.5A99.7 99.7 0 0 1 151 44a191.1 191.1 0 0 1-11 17v.7l1.3-.6a3.6 3.6 0 0 1 2 0l.7.2.7.3.8.1a28.4 28.4 0 0 0 19.4-7.3l-1 11.6c-2 1.2-4.3 2-6.6 2.7a60.4 60.4 0 0 1-13 2.1 65.8 65.8 0 0 1 5.2 13.2c.7 2.3 1 4.8 1 7.3l-.1 1.8-.4 3.4a64.7 64.7 0 0 1-2.2 9.4 31 31 0 0 1-2 4.8c-.7 1.5-1.7 2.8-2.8 4-1 1.3-2.3 2.3-3.7 3-1.4.8-3 1.1-4.6 1.1-1.6 0-3.2-.4-4.6-1.2-1.3-.8-2.4-2-3.3-3.3-1-1.4-1.8-3-2.3-4.7a64.7 64.7 0 0 1-2.4-17.9zm-10.3-75.3a144.4 144.4 0 0 0-6.7 21.5 85.4 85.4 0 0 0-1.8 12.9l5.9-10.9a353.8 353.8 0 0 0 9.2-18 15 15 0 0 0 1.5-5.3c0-1.3-.2-2.6-.7-3.7a2.2 2.2 0 0 0-2-1.2c-1.2 0-2.4.3-3.3 1.2a10 10 0 0 0-2 3.5zm-11.5 52.3a37.6 37.6 0 0 0-1 3.9l-.3 3.8-.3 4.1-.3 3.8v2.8c0 4.7 0 8.4.2 11.2.1 2.8.4 4.9.7 6.3 0 1 .4 2 .8 2.8.3.3.6.6 1 .7 1.1 0 2.1-.6 2.6-1.5.8-1.2 1.3-2.5 1.5-3.8a77.8 77.8 0 0 0 .6-14.3c-.2-1.7-.4-3.3-.8-5.1l-1-5.3a62.7 62.7 0 0 0-2.5-8.1c-.5-.9-.9-1.3-1.3-1.3h.1zm-12.8 23l.1-3a397.9 397.9 0 0 1 5-43 172.4 172.4 0 0 1 7-25.5c1.4-3.5 3-6.8 5-10 1.7-2.6 3.8-5 6.3-6.8 2.2-1.6 4.8-2.5 7.5-2.5a10.7 10.7 0 0 1 6.7 2.5c1 1 1.9 2.1 2.4 3.4a12 12 0 0 1 1 5.2 28 28 0 0 1-.9 6.6 102 102 0 0 1-11 25.5 191.1 191.1 0 0 1-11 16.9l-.2.7 1.4-.6a3.7 3.7 0 0 1 2.7.2l.7.3.8.1a28.4 28.4 0 0 0 19.4-7.3l-1 11.6c-2.1 1.2-4.3 2-6.6 2.7a59.8 59.8 0 0 1-13 2.1 65.8 65.8 0 0 1 5.2 13.2 27.4 27.4 0 0 1 .9 9l-.4 3.5a70.8 70.8 0 0 1-2.2 9.4 31 31 0 0 1-2 4.8c-.7 1.5-1.7 2.9-2.8 4-1 1.3-2.3 2.3-3.7 3-1.4.8-3 1.1-4.6 1.1-1.6 0-3.2-.4-4.6-1.2-1.3-.8-2.5-2-3.3-3.2-1-1.5-1.8-3.1-2.4-4.8-.6-1.8-1-3.8-1.4-5.7a60.7 60.7 0 0 1-1-12.2zm-24.1-11c1.2 0 2.3-.6 3.1-1.6 1.1-1.2 2-2.7 2.7-4.2a28.3 28.3 0 0 0 2.2-15.5l-1-3.3a6 6 0 0 0-1.8-2.2 4 4 0 0 0-2.5-.8c-1.4 0-2.7.7-3.7 1.7a15.7 15.7 0 0 0-3 4.3 27.4 27.4 0 0 0-3 11.9c0 1.3.1 2.5.4 3.8a10 10 0 0 0 1.2 3.1c.5.9 1.3 1.6 2.1 2.1 1 .6 2.1.8 3.2.8zM78 54c1 1.9 1.6 3.9 2 5.9a25.8 25.8 0 0 1-1.7 17.2 25.2 25.2 0 0 1-6.7 9c-1.4 1.2-3 2.1-4.7 2.8-1.8.6-3.6 1-5.5 1a13.5 13.5 0 0 1-12-6.7c-1.3-2-2.3-4.3-2.8-6.7a33.9 33.9 0 0 1 .7-17.4c1-3 2.5-5.7 4.5-8s4.4-4 7.2-5.3a24.5 24.5 0 0 1 18-.6 38.9 38.9 0 0 1 13.8 9.2c2 2 3.8 4.2 5.5 6.4l-.9 6.8c-1-1.4-2.2-2.6-3.5-3.8a82.2 82.2 0 0 0-9.4-7.5l-4.1-2.9-.4.6zM35 18.5a8 8 0 0 0-.4-2.4c-.1-.4-.4-.8-.7-1-.4-.3-1-.5-1.4-.4-.8 0-1.7.7-2.5 2.2-1 1.8-1.8 3.7-2.5 5.6a102.6 102.6 0 0 0-4 15.6l1.4.2 1.5.1 3-5.3a68.1 68.1 0 0 0 4.8-10.8c.5-1.2.7-2.5.8-3.9zM50.2 79a666.4 666.4 0 0 1-14.5 8c-1.6.9-3.2 1.5-5 2-1.2.5-2.5.7-3.8.7-2.3 0-4.6-.7-6.4-2.2-2-1.7-3.6-3.9-4.6-6.3a41 41 0 0 1-2.8-10 88.6 88.6 0 0 1 0-26c-1 0-1.7-.1-2.3-.3l-1.6-.3c-.6 0-1.3-.2-2.3-.4L3 44c-.6-.1-1.2-.3-1.7-.6A2.9 2.9 0 0 1 0 41.2v-1c0-.7.4-1.3 1-1.5a7 7 0 0 1 2.4-.8l3.2-.2h7.9c.8-4.3 2-8.4 3.2-12.5a73 73 0 0 1 4.5-10.8c1.3-2.8 3.2-5.4 5.3-7.6a8.6 8.6 0 0 1 6-2.8c1.3 0 2.7.4 3.7 1.2a10 10 0 0 1 3 3A20.7 20.7 0 0 1 42 23a38.4 38.4 0 0 1-4.6 10.8l-3.2 5.6h3.7l2.9.2h3l2.6.2h2c.6.1 1.2.5 1.4 1 .3.8.5 1.6.4 2.4 0 1-.3 2-1 2.7-.5.6-1.3 1-2 1H28.8a179.4 179.4 0 0 1-5.4 7.2c0 2-.2 4-.3 5.8v2.6L23 65l-.1 2.5v2.3c0 1.4.1 2.9.5 4.3.2 1 .7 2 1.4 2.9.6.7 1.3 1.3 2.2 1.7 1 .3 2 .5 3 .5.8 0 1.7-.2 2.5-.5a27.4 27.4 0 0 0 7-3.3 66.9 66.9 0 0 0 7.6-5.4l3.2-3.1V79z" fill="#EB5959"/></svg>