<svg data-name="Group 4806" xmlns="http://www.w3.org/2000/svg" width="30" height="26.842" viewBox="0 0 30 26.842"><path data-name="Union 1" d="M3.948 26.842A3.947 3.947 0 0 1 0 22.895V8.684a3.947 3.947 0 0 1 3.948-3.947h2a2.369 2.369 0 0 0 2.114-1.309l.622-1.246A3.947 3.947 0 0 1 12.215 0h5.57a3.947 3.947 0 0 1 3.531 2.182l.623 1.246a2.369 2.369 0 0 0 2.119 1.309h2A3.947 3.947 0 0 1 30 8.684v14.211a3.947 3.947 0 0 1-3.948 3.947zM1.579 8.684v14.211a2.368 2.368 0 0 0 2.368 2.368h22.1a2.368 2.368 0 0 0 2.368-2.368V8.684a2.368 2.368 0 0 0-2.368-2.368h-2a3.947 3.947 0 0 1-3.531-2.182L19.9 2.888a2.369 2.369 0 0 0-2.119-1.309h-5.57A2.369 2.369 0 0 0 10.1 2.888l-.627 1.246a3.947 3.947 0 0 1-3.53 2.182h-2a2.368 2.368 0 0 0-2.364 2.368zM7.895 15A7.105 7.105 0 1 1 15 22.105 7.105 7.105 0 0 1 7.895 15zm1.579 0A5.526 5.526 0 1 0 15 9.474 5.526 5.526 0 0 0 9.474 15z" fill="#555"/></svg>