<svg xmlns="http://www.w3.org/2000/svg" xml:space="preserve" viewBox="0 0 460 460"><path fill="#de3e30" d="M282 215H178c-12 0-21-10-21-22v-63h146v63c0 12-9 22-21 22z"/><path fill="#d0d5d9" d="M282 130v43c0 12-10 22-22 22H157c1 11 11 20 22 20h102c12 0 22-10 22-23v-62h-21z" opacity=".5"/><path fill="#f9b65f" d="M259 130v-27a29 29 0 0 0-58 0v27h-23v-30a52 52 0 0 1 104 0v30h-23z"/><path fill="#fff" d="M230 190c-4 0-8-3-8-7v-21a8 8 0 1 1 16 0v21c0 4-4 7-8 7z"/><path fill="#86c867" d="M36 266c-20 0-36 16-36 36v75c0 19 16 35 36 35h313V266H36z"/><path fill="#d0d5d9" d="M48 391c-20 0-36-16-36-35v-75l1-7c-8 7-13 17-13 28v75c0 19 16 35 36 35h313v-21H48z" opacity=".5"/><path fill="#6aac4b" d="M424 266h-75v146h75c20 0 36-16 36-35v-75c0-20-16-36-36-36z"/><path fill="#d0d5d9" d="M424 391h-75v21h75c20 0 36-16 36-35v-21c0 19-16 35-36 35z" opacity=".5"/><path fill="#fff" d="M390 373a8 8 0 0 1-5-13l20-21-20-20a8 8 0 0 1 11-11l26 26a8 8 0 0 1 0 11l-26 26-6 2z"/><circle cx="64.6" cy="339.2" r="20.3" fill="#ecf0f1"/><circle cx="125.5" cy="339.2" r="20.3" fill="#ecf0f1"/><circle cx="186.3" cy="339.2" r="20.3" fill="#ecf0f1"/><path fill="#fff" d="M272 347h-32a8 8 0 1 1 0-16h32a8 8 0 1 1 0 16z"/></svg>